<?xml version="1.0" standalone="no"?>
<!DOCTYPE svg PUBLIC "-//W3C//DTD SVG 20010904//EN"
 "http://www.w3.org/TR/2001/REC-SVG-20010904/DTD/svg10.dtd">
<svg version="1.0" xmlns="http://www.w3.org/2000/svg"
 width="64.000000pt" height="64.000000pt" viewBox="0 0 64.000000 64.000000"
 preserveAspectRatio="xMidYMid meet">

<g transform="translate(0.000000,64.000000) scale(0.100000,-0.100000)"
fill="#000000" stroke="none">
<path d="M162 483 c-154 -126 -166 -142 -104 -143 22 0 22 -2 22 -130 l0 -130
240 0 240 0 0 130 c0 128 0 130 23 130 55 1 49 16 -30 82 -133 110 -231 188
-235 187 -2 0 -72 -57 -156 -126z m178 -75 c0 -31 75 -78 124 -78 25 0 36 -4
36 -15 0 -8 -9 -15 -20 -15 -11 0 -20 -5 -20 -10 0 -15 41 -94 52 -101 17 -11
-43 -49 -77 -49 -34 0 -94 38 -76 49 5 4 21 31 35 61 l26 55 -48 23 c-47 22
-113 23 -136 1 -11 -10 32 -109 48 -109 6 0 -2 -12 -17 -25 -35 -31 -85 -33
-121 -4 -15 12 -23 25 -18 28 13 8 52 87 52 104 0 8 -9 17 -20 20 -11 3 -20
12 -20 20 0 13 6 14 36 5 48 -13 124 13 124 43 0 12 7 19 20 19 14 0 20 -7 20
-22z"/>
<path d="M183 274 l-22 -49 25 -3 c13 -2 33 -2 44 0 19 3 19 4 -3 52 l-23 50
-21 -50z"/>
<path d="M413 244 l-22 -49 25 -3 c13 -2 33 -2 44 0 19 3 19 4 -3 52 l-23 50
-21 -50z"/>
</g>
</svg>
